<svg width="53" height="48" viewBox="0 0 53 48" fill="none" xmlns="http://www.w3.org/2000/svg">
<path d="M44.875 16C42.6875 16 40.8281 15.2344 39.2969 13.7031C37.7656 12.1719 37 10.3125 37 8.125C37 5.9375 37.7656 4.07813 39.2969 2.54688C40.8281 1.01562 42.6875 0.25 44.875 0.25C47.0625 0.25 48.9219 1.01562 50.4531 2.54688C51.9844 4.07813 52.75 5.9375 52.75 8.125C52.75 10.3125 51.9844 12.1719 50.4531 13.7031C48.9219 15.2344 47.0625 16 44.875 16ZM5.5 47.5C4.05625 47.5 2.82031 46.9859 1.79219 45.9578C0.764063 44.9297 0.25 43.6938 0.25 42.25V10.75C0.25 9.30625 0.764063 8.07031 1.79219 7.04219C2.82031 6.01406 4.05625 5.5 5.5 5.5H32.0125C31.8375 6.375 31.75 7.25 31.75 8.125C31.75 9 31.8375 9.875 32.0125 10.75C32.3188 12.15 32.8219 13.4516 33.5219 14.6547C34.2219 15.8578 35.075 16.9188 36.0813 17.8375L26.5 23.875L5.5 10.75V16L26.5 29.125L40.3469 20.4625C41.0906 20.725 41.8344 20.9219 42.5781 21.0531C43.3219 21.1844 44.0875 21.25 44.875 21.25C46.275 21.25 47.6531 21.0313 49.0094 20.5938C50.3656 20.1562 51.6125 19.5 52.75 18.625V42.25C52.75 43.6938 52.2359 44.9297 51.2078 45.9578C50.1797 46.9859 48.9438 47.5 47.5 47.5H5.5Z" fill="black"/>
</svg>
