<svg width="227" height="200" viewBox="0 0 227 200" fill="none" xmlns="http://www.w3.org/2000/svg">
<rect x="0.5" y="0.5" width="226" height="199" rx="99.5" fill="white"/>
<rect x="0.5" y="0.5" width="226" height="199" rx="99.5" stroke="black"/>
<path fill-rule="evenodd" clip-rule="evenodd" d="M147.551 80C147.551 96.5685 132.307 110 113.501 110C94.6961 110 79.4514 96.5685 79.4514 80C79.4514 63.4315 94.6961 50 113.501 50C132.307 50 147.551 63.4315 147.551 80ZM136.201 80C136.201 91.0457 126.038 100 113.501 100C100.965 100 90.8014 91.0457 90.8014 80C90.8014 68.9543 100.965 60 113.501 60C126.038 60 136.201 68.9543 136.201 80Z" fill="black"/>
<path d="M113.501 125C76.7593 125 45.454 144.142 33.5291 170.96C36.4341 173.502 39.4943 175.906 42.696 178.16C51.5759 153.538 79.4328 135 113.501 135C147.57 135 175.427 153.539 184.307 178.16C187.509 175.906 190.569 173.502 193.474 170.96C181.549 144.142 150.244 125 113.501 125Z" fill="black"/>
</svg>
