<svg width="45" height="55" viewBox="0 0 45 55" fill="none" xmlns="http://www.w3.org/2000/svg">
<path d="M22.4999 27.5003C23.9895 27.5003 25.2647 26.9699 26.3254 25.9092C27.3862 24.8484 27.9166 23.5732 27.9166 22.0837C27.9166 20.5941 27.3862 19.3189 26.3254 18.2581C25.2647 17.1974 23.9895 16.667 22.4999 16.667C21.0103 16.667 19.7352 17.1974 18.6744 18.2581C17.6136 19.3189 17.0833 20.5941 17.0833 22.0837C17.0833 23.5732 17.6136 24.8484 18.6744 25.9092C19.7352 26.9699 21.0103 27.5003 22.4999 27.5003ZM22.4999 47.4066C28.0069 42.351 32.0919 37.7581 34.7551 33.6279C37.4183 29.4977 38.7499 25.8302 38.7499 22.6253C38.7499 17.7052 37.1813 13.6765 34.0442 10.5394C30.907 7.40223 27.0589 5.83366 22.4999 5.83366C17.9409 5.83366 14.0928 7.40223 10.9556 10.5394C7.8185 13.6765 6.24992 17.7052 6.24992 22.6253C6.24992 25.8302 7.58152 29.4977 10.2447 33.6279C12.9079 37.7581 16.993 42.351 22.4999 47.4066ZM22.4999 54.5837C15.2326 48.3996 9.80461 42.6557 6.21606 37.3519C2.62752 32.0481 0.833252 27.1392 0.833252 22.6253C0.833252 15.8545 3.0112 10.4604 7.36711 6.44303C11.723 2.42567 16.7673 0.416992 22.4999 0.416992C28.2326 0.416992 33.2768 2.42567 37.6327 6.44303C41.9886 10.4604 44.1666 15.8545 44.1666 22.6253C44.1666 27.1392 42.3723 32.0481 38.7838 37.3519C35.1952 42.6557 29.7673 48.3996 22.4999 54.5837Z" fill="black"/>
</svg>
