<svg width="45" height="55" viewBox="0 0 45 55" fill="none" xmlns="http://www.w3.org/2000/svg">
<path d="M22.5 27.5003C23.9896 27.5003 25.2647 26.9699 26.3255 25.9092C27.3863 24.8484 27.9166 23.5732 27.9166 22.0837C27.9166 20.5941 27.3863 19.3189 26.3255 18.2581C25.2647 17.1974 23.9896 16.667 22.5 16.667C21.0104 16.667 19.7352 17.1974 18.6745 18.2581C17.6137 19.3189 17.0833 20.5941 17.0833 22.0837C17.0833 23.5732 17.6137 24.8484 18.6745 25.9092C19.7352 26.9699 21.0104 27.5003 22.5 27.5003ZM22.5 47.4066C28.0069 42.351 32.092 37.7581 34.7552 33.6279C37.4184 29.4977 38.75 25.8302 38.75 22.6253C38.75 17.7052 37.1814 13.6765 34.0443 10.5394C30.9071 7.40223 27.059 5.83366 22.5 5.83366C17.941 5.83366 14.0929 7.40223 10.9557 10.5394C7.81856 13.6765 6.24998 17.7052 6.24998 22.6253C6.24998 25.8302 7.58158 29.4977 10.2448 33.6279C12.908 37.7581 16.993 42.351 22.5 47.4066ZM22.5 54.5837C15.2326 48.3996 9.80467 42.6557 6.21613 37.3519C2.62758 32.0481 0.833313 27.1392 0.833313 22.6253C0.833313 15.8545 3.01126 10.4604 7.36717 6.44303C11.7231 2.42567 16.7673 0.416992 22.5 0.416992C28.2326 0.416992 33.2769 2.42567 37.6328 6.44303C41.9887 10.4604 44.1666 15.8545 44.1666 22.6253C44.1666 27.1392 42.3724 32.0481 38.7838 37.3519C35.1953 42.6557 29.7673 48.3996 22.5 54.5837Z" fill="white"/>
</svg>
