<svg width="63" height="57" viewBox="0 0 63 57" fill="none" xmlns="http://www.w3.org/2000/svg">
<path d="M60.1667 41.4153V49.2903C60.17 50.0213 60.0036 50.7449 59.6782 51.4148C59.3527 52.0846 58.8755 52.6859 58.2769 53.1802C57.6783 53.6744 56.9717 54.0506 56.2022 54.2849C55.4327 54.5191 54.6173 54.6061 53.8083 54.5403C44.8333 53.6626 36.2121 50.9024 28.6375 46.4815C21.5903 42.4512 15.6156 37.074 11.1375 30.7315C6.20828 23.8834 3.14072 16.0866 2.18334 7.97275C2.11046 7.24686 2.20631 6.51525 2.4648 5.82452C2.72329 5.13379 3.13876 4.49906 3.68474 3.96076C4.23073 3.42246 4.89527 2.99237 5.63607 2.69787C6.37686 2.40338 7.17767 2.25094 7.98751 2.25025H16.7375C18.153 2.23772 19.5252 2.68884 20.5985 3.51953C21.6717 4.35022 22.3727 5.5038 22.5708 6.76525C22.9402 9.28543 23.6251 11.7599 24.6125 14.1415C25.0049 15.0811 25.0899 16.1022 24.8572 17.0838C24.6246 18.0655 24.0842 18.9665 23.3 19.6803L19.5958 23.014C23.7479 29.5858 29.7938 35.0272 37.0958 38.764L40.8 35.4303C41.593 34.7245 42.5942 34.2381 43.6849 34.0288C44.7757 33.8194 45.9102 33.8958 46.9542 34.249C49.6004 35.1377 52.3498 35.7541 55.15 36.0865C56.5668 36.2664 57.8608 36.9087 58.7857 37.8912C59.7107 38.8737 60.2022 40.1279 60.1667 41.4153Z" stroke="black" stroke-width="4" stroke-linecap="round" stroke-linejoin="round"/>
</svg>
