<svg width="101" height="96" viewBox="0 0 101 96" fill="none" xmlns="http://www.w3.org/2000/svg">
<path d="M24.6191 68.4C28.1962 65.8 32.1941 63.75 36.6128 62.25C41.0316 60.75 45.6607 60 50.5003 60C55.3399 60 59.9691 60.75 64.3878 62.25C68.8066 63.75 72.8045 65.8 76.3816 68.4C78.8364 65.6667 80.7477 62.5667 82.1154 59.1C83.4831 55.6333 84.167 51.9333 84.167 48C84.167 39.1333 80.888 31.5833 74.33 25.35C67.772 19.1167 59.8288 16 50.5003 16C41.1719 16 33.2286 19.1167 26.6706 25.35C20.1127 31.5833 16.8337 39.1333 16.8337 48C16.8337 51.9333 17.5175 55.6333 18.8852 59.1C20.2529 62.5667 22.1642 65.6667 24.6191 68.4ZM50.5003 52C46.3621 52 42.8727 50.65 40.0321 47.95C37.1915 45.25 35.7712 41.9333 35.7712 38C35.7712 34.0667 37.1915 30.75 40.0321 28.05C42.8727 25.35 46.3621 24 50.5003 24C54.6385 24 58.1279 25.35 60.9686 28.05C63.8092 30.75 65.2295 34.0667 65.2295 38C65.2295 41.9333 63.8092 45.25 60.9686 47.95C58.1279 50.65 54.6385 52 50.5003 52ZM50.5003 88C44.6788 88 39.208 86.95 34.0878 84.85C28.9677 82.75 24.5139 79.9 20.7264 76.3C16.9389 72.7 13.9404 68.4667 11.7311 63.6C9.52168 58.7333 8.41699 53.5333 8.41699 48C8.41699 42.4667 9.52168 37.2667 11.7311 32.4C13.9404 27.5333 16.9389 23.3 20.7264 19.7C24.5139 16.1 28.9677 13.25 34.0878 11.15C39.208 9.05 44.6788 8 50.5003 8C56.3219 8 61.7927 9.05 66.9128 11.15C72.033 13.25 76.4868 16.1 80.2743 19.7C84.0618 23.3 87.0602 27.5333 89.2696 32.4C91.479 37.2667 92.5837 42.4667 92.5837 48C92.5837 53.5333 91.479 58.7333 89.2696 63.6C87.0602 68.4667 84.0618 72.7 80.2743 76.3C76.4868 79.9 72.033 82.75 66.9128 84.85C61.7927 86.95 56.3219 88 50.5003 88Z" fill="#1D1B20"/>
</svg>
